<svg width="36" height="36" viewBox="0 0 36 36" fill="none" xmlns="http://www.w3.org/2000/svg">
<g id="menu-svgrepo-com 1">
<path id="Vector" fill-rule="evenodd" clip-rule="evenodd" d="M34.2 7.1999C34.2 7.67729 34.0104 8.13513 33.6728 8.47269C33.3352 8.81026 32.8774 8.9999 32.4 8.9999H3.6C3.12261 8.9999 2.66477 8.81026 2.32721 8.47269C1.98964 8.13513 1.8 7.67729 1.8 7.1999C1.8 6.72251 1.98964 6.26468 2.32721 5.92711C2.66477 5.58954 3.12261 5.3999 3.6 5.3999H32.4C32.8774 5.3999 33.3352 5.58954 33.6728 5.92711C34.0104 6.26468 34.2 6.72251 34.2 7.1999ZM34.2 17.9999C34.2 18.4773 34.0104 18.9351 33.6728 19.2727C33.3352 19.6103 32.8774 19.7999 32.4 19.7999H3.6C3.12261 19.7999 2.66477 19.6103 2.32721 19.2727C1.98964 18.9351 1.8 18.4773 1.8 17.9999C1.8 17.5225 1.98964 17.0647 2.32721 16.7271C2.66477 16.3895 3.12261 16.1999 3.6 16.1999H32.4C32.8774 16.1999 33.3352 16.3895 33.6728 16.7271C34.0104 17.0647 34.2 17.5225 34.2 17.9999ZM32.4 30.5999C32.8774 30.5999 33.3352 30.4103 33.6728 30.0727C34.0104 29.7351 34.2 29.2773 34.2 28.7999C34.2 28.3225 34.0104 27.8647 33.6728 27.5271C33.3352 27.1895 32.8774 26.9999 32.4 26.9999H3.6C3.12261 26.9999 2.66477 27.1895 2.32721 27.5271C1.98964 27.8647 1.8 28.3225 1.8 28.7999C1.8 29.2773 1.98964 29.7351 2.32721 30.0727C2.66477 30.4103 3.12261 30.5999 3.6 30.5999H32.4Z" fill="black"/>
</g>
</svg>
