<svg width="564" height="282" viewBox="0 0 564 282" fill="none" xmlns="http://www.w3.org/2000/svg">
<g clip-path="url(#clip0_30_900)">
<path d="M185.736 282C168.718 282 151.725 281.696 134.758 281.088C110.514 280.22 85.4438 279.322 62.1423 266.432C45.8419 257.415 31.4054 242.949 20.3939 224.596C13.0339 212.157 7.63731 198.662 4.39355 184.585C-1.65731 158.956 -1.45121 132.252 4.99452 106.719C7.25335 97.9649 10.3673 89.4527 14.2917 81.3046C31.2845 46.2067 62.2782 22.6464 99.3259 16.6654C99.6319 16.6258 99.9412 16.6192 100.249 16.6457C100.415 16.6546 100.581 16.6642 100.751 16.6571L100.969 16.588C101.527 16.3943 102.101 16.2474 102.685 16.1487C159.822 7.66461 220.224 24.831 277.358 65.7907C321.533 97.465 380.077 114.521 456.337 117.934L457.42 117.99C478.649 119.207 499.184 127.936 516.807 143.236C534.201 158.338 547.261 178.486 554.575 201.503C555.474 204.309 556.299 207.231 557.025 210.185C557.701 212.931 557.654 215.804 556.886 218.526C556.119 221.247 554.659 223.725 552.647 225.717V225.722L552.458 225.917C552 226.37 551.519 226.805 551.027 227.21L550.449 227.686C545.576 231.69 541.727 234.853 537.12 237.31C534.047 238.937 530.779 240.168 527.395 240.972C508.812 245.491 489.94 249.68 471.303 253.425C435.111 260.704 397.965 266.708 360.897 271.271C302.785 278.418 244.289 282.001 185.736 282ZM99.8154 17.8888C99.7015 17.8877 99.5878 17.8955 99.4752 17.9119C62.7738 23.837 32.0735 47.166 15.2492 81.9164C11.3635 89.9837 8.28039 98.4116 6.04402 107.079C-0.342973 132.386 -0.546509 158.852 5.45053 184.254C8.66253 198.196 14.0068 211.562 21.2957 223.882C32.1995 242.055 46.4884 256.377 62.6179 265.298C85.7102 278.073 110.662 278.966 134.792 279.83C210.263 282.52 285.829 279.24 360.781 270.02C397.824 265.46 434.946 259.46 471.115 252.186C489.738 248.444 508.597 244.257 527.168 239.741C530.471 238.957 533.66 237.756 536.658 236.168C541.172 233.761 544.985 230.628 549.812 226.662L550.39 226.187C550.813 225.839 551.228 225.467 551.625 225.08L551.739 224.961C555.705 220.973 557.248 215.712 555.971 210.527V210.526C555.252 207.603 554.437 204.714 553.547 201.936C538.605 154.916 499.954 121.687 457.368 119.247L456.291 119.191C421.456 117.631 390.973 113.313 363.104 105.986C329.835 97.2408 300.791 84.0758 276.777 66.8578C219.862 26.055 159.712 8.95254 102.824 17.3964C102.293 17.4879 101.77 17.6231 101.261 17.8006L100.868 17.9103C100.645 17.9203 100.421 17.9176 100.198 17.9023C100.067 17.8956 99.9397 17.8888 99.8154 17.8888Z" fill="#F0F0F0"/>
<path d="M176.171 91.879C174.595 90.3713 172.984 81.9639 170.972 81.1104C172.476 84.4247 171.384 85.3021 171.376 88.9395C171.395 91.0049 171.153 93.0645 170.656 95.0696H136.583V68.547C136.583 66.1639 137.054 63.8041 137.968 61.6023C138.883 59.4006 140.223 57.4 141.912 55.7149C143.602 54.0298 145.607 52.6931 147.815 51.7811C150.022 50.8692 152.388 50.3998 154.778 50.3999C155.689 50.4177 156.596 50.55 157.474 50.7937C160.403 51.5823 163.072 53.1253 165.214 55.2677C167.356 57.4101 168.896 60.0767 169.679 63C172.276 72.4698 176.407 88.2328 176.171 91.879Z" fill="#2F2E41"/>
<path d="M138.583 124.507L138.599 103.834L126.416 104.92L130.716 117.958L128.703 150.73C127.727 150.949 126.836 151.446 126.138 152.161C125.441 152.876 124.966 153.778 124.774 154.757C124.581 155.736 124.678 156.749 125.053 157.674C125.428 158.599 126.065 159.395 126.886 159.966C127.707 160.536 128.676 160.856 129.676 160.886C130.676 160.916 131.663 160.655 132.517 160.136C133.37 159.616 134.054 158.86 134.485 157.959C134.915 157.059 135.074 156.053 134.941 155.064L138.583 124.507Z" fill="#FFB6B6"/>
<path d="M162.559 272.235L167.481 272.235L169.823 253.299H162.558L162.559 272.235Z" fill="#FFB6B6"/>
<path d="M160.892 269.813L168.673 269.35V272.675L176.071 277.771C176.436 278.023 176.711 278.384 176.856 278.803C177.001 279.222 177.008 279.676 176.876 280.098C176.743 280.521 176.479 280.891 176.122 281.153C175.764 281.416 175.332 281.557 174.887 281.557H165.624L164.027 278.268L163.404 281.557H159.911L160.892 269.813Z" fill="#2F2E41"/>
<path d="M134.099 272.235L139.021 272.235L141.363 253.299H134.098L134.099 272.235Z" fill="#FFB6B6"/>
<path d="M132.432 269.813L140.213 269.35V272.675L147.611 277.771C147.976 278.023 148.251 278.384 148.396 278.803C148.541 279.222 148.548 279.676 148.416 280.098C148.284 280.521 148.019 280.891 147.662 281.153C147.304 281.416 146.872 281.557 146.428 281.557H137.164L135.567 278.268L134.944 281.557H131.451L132.432 269.813Z" fill="#2F2E41"/>
<path d="M158.176 81.5092L147.98 81.7086L140.782 89.2865L135.011 90.1307C132.401 90.5125 130.001 91.7764 128.213 93.7112C126.425 95.6459 125.357 98.1342 125.187 100.76L126.187 106.237H132.185L135.655 126.558C134.305 129.987 134.214 132.694 136.983 133.757L145.58 149.91L170.972 138.543C172.26 136.335 172.672 134.117 171.356 131.96L173.171 100.853H179.275C179.275 95.0347 177.302 90.1299 171.505 89.4825C169.203 89.234 166.89 89.102 164.574 89.0871L158.176 81.5092Z" fill="#E6E6E6"/>
<path d="M170.972 138.543C170.972 138.543 146.18 142.93 136.983 133.757C136.983 133.757 136.05 135.338 134.643 137.96C134.238 138.714 133.457 139.225 132.985 140.138C132.556 140.968 131.452 141.989 130.985 142.93C130.609 143.688 131.212 144.678 130.821 145.496C126.111 155.349 120.609 169.249 121.788 178.427C122.549 184.345 124.12 198.118 125.775 212.91C125.904 214.065 124.857 215.55 124.987 216.715C125.11 217.813 126.41 218.592 126.532 219.693C126.613 220.424 125.706 221.17 125.787 221.9C125.876 222.701 126.954 223.486 127.042 224.284C129.309 244.709 131.385 263.778 131.385 263.778H142.981L145.169 220.226L143.381 204.351L147.58 172.245L153.378 202.756L154.124 219.927L160.251 264.575H170.972V221.353L171.772 219.108L170.972 216.228L171.772 213.125L170.972 209.746V138.543Z" fill="#2F2E41"/>
<path d="M161.306 75.6114C159.726 77.7042 157.479 79.198 154.935 79.8469C152.391 80.4958 149.7 80.261 147.308 79.1813C144.915 78.1015 142.962 76.2412 141.771 73.9066C140.58 71.5721 140.221 68.9025 140.754 66.3375C141.288 63.7726 142.681 61.4652 144.704 59.7954C146.728 58.1256 149.261 57.193 151.887 57.1511C154.513 57.1092 157.075 57.9605 159.151 59.5648C161.227 61.1692 162.693 63.4309 163.308 65.9776C163.342 66.1157 163.37 66.2531 163.397 66.3958C163.722 67.992 163.703 69.6388 163.343 71.2274C162.983 72.816 162.288 74.3102 161.306 75.6114Z" fill="#FFB6B6"/>
<path d="M158.896 69.0336C158.651 67.8061 158.031 66.6846 157.121 65.8229C157.21 66.9991 157.047 68.1809 156.641 69.2888C153.601 69.5573 150.547 68.954 147.84 67.5499C145.8 66.1699 143.205 66.2896 140.182 67.5499C140.182 66.0833 140.471 64.6311 141.034 63.2761C141.597 61.9211 142.421 60.6899 143.461 59.6529C144.501 58.6159 145.735 57.7933 147.094 57.2322C148.452 56.671 149.908 56.3823 151.378 56.3824H153.378C156.347 56.383 159.195 57.5597 161.294 59.6539C163.394 61.7481 164.574 64.5883 164.574 67.5499C162.729 68.21 160.829 68.7065 158.896 69.0336Z" fill="#2F2E41"/>
<path d="M71.4258 211.367C89.1903 211.367 103.591 197.003 103.591 179.284C103.591 161.566 89.1903 147.202 71.4258 147.202C53.6613 147.202 39.2603 161.566 39.2603 179.284C39.2603 197.003 53.6613 211.367 71.4258 211.367Z" fill="#F0F0F0"/>
<path d="M276.402 64.1649C294.167 64.1649 308.568 49.8011 308.568 32.0825C308.568 14.3638 294.167 0 276.402 0C258.638 0 244.237 14.3638 244.237 32.0825C244.237 49.8011 258.638 64.1649 276.402 64.1649Z" fill="#F0F0F0"/>
<path d="M531.834 216.399C549.599 216.399 564 202.036 564 184.317C564 166.598 549.599 152.234 531.834 152.234C514.07 152.234 499.669 166.598 499.669 184.317C499.669 202.036 514.07 216.399 531.834 216.399Z" fill="#F0F0F0"/>
<path d="M334.426 35.5812V108.33C334.426 109.842 333.829 111.292 332.763 112.366C331.698 113.44 330.25 114.051 328.735 114.067C328.714 114.069 328.693 114.07 328.672 114.07H320.183C313.391 114.07 306.877 111.378 302.074 106.588C297.271 101.797 294.573 95.3002 294.573 88.5255V35.5812C294.573 34.0591 295.179 32.5993 296.258 31.523C297.337 30.4466 298.801 29.842 300.327 29.842H303.767C302.173 34.4786 323.801 36.4307 324.988 29.842H328.672C330.198 29.842 331.662 30.4467 332.741 31.523C333.82 32.5993 334.426 34.0591 334.426 35.5812Z" fill="#2DBA4E"/>
<path d="M309.234 24.402C309.235 24.2026 309.314 24.0114 309.455 23.8704C309.597 23.7294 309.789 23.6501 309.988 23.6499H315.116C315.316 23.6504 315.507 23.7299 315.648 23.8709C315.789 24.0119 315.868 24.2029 315.868 24.402C315.868 24.6011 315.789 24.7921 315.648 24.9331C315.507 25.0741 315.316 25.1536 315.116 25.1542H309.988C309.789 25.1539 309.597 25.0746 309.455 24.9336C309.314 24.7926 309.235 24.6014 309.234 24.402Z" fill="#3F3D56"/>
<path d="M330.434 123.297H298.006C295.49 123.295 293.078 122.296 291.299 120.522C289.52 118.748 288.519 116.342 288.517 113.832V62.9778C288.339 62.8502 288.193 62.6822 288.094 62.4876C287.994 62.293 287.942 62.0774 287.942 61.8588V56.7442C287.942 56.5256 287.994 56.3101 288.094 56.1155C288.193 55.921 288.339 55.753 288.517 55.6255V54.2528C288.339 54.1254 288.193 53.9574 288.094 53.7628C287.994 53.5682 287.942 53.3527 287.942 53.1341V48.0193C287.942 47.8007 287.994 47.5851 288.094 47.3906C288.193 47.196 288.339 47.0281 288.517 46.9006V44.4196C288.297 44.3019 288.113 44.1267 287.985 43.9129C287.857 43.6991 287.79 43.4546 287.791 43.2057V38.0912C287.79 37.8422 287.857 37.5977 287.985 37.3839C288.113 37.17 288.297 36.9948 288.517 36.8769V30.0788C288.519 27.5694 289.52 25.1637 291.299 23.3893C293.078 21.6149 295.49 20.6168 298.006 20.614H330.434C332.95 20.6168 335.362 21.6149 337.141 23.3893C338.92 25.1637 339.921 27.5695 339.924 30.0789V44.8973C340.094 45.0039 340.235 45.1521 340.333 45.328C340.431 45.5038 340.482 45.7015 340.482 45.9026V55.655C340.482 55.8561 340.431 56.0539 340.333 56.2298C340.235 56.4057 340.094 56.554 339.924 56.6606V113.832C339.921 116.342 338.92 118.748 337.141 120.522C335.362 122.296 332.95 123.294 330.434 123.297ZM298.006 21.8721C295.825 21.8746 293.733 22.74 292.191 24.2785C290.648 25.817 289.78 27.903 289.778 30.0789V37.9471L289.171 37.9705C289.14 37.9716 289.11 37.9848 289.088 38.0072C289.066 38.0297 289.053 38.0597 289.052 38.0912V43.2057C289.053 43.2371 289.066 43.2672 289.088 43.2896C289.11 43.312 289.14 43.3252 289.171 43.3264L289.778 43.3495V47.784L289.298 47.9019C289.272 47.9083 289.248 47.9233 289.231 47.9445C289.214 47.9657 289.204 47.992 289.203 48.0193V53.1341C289.204 53.1614 289.214 53.1877 289.231 53.2089C289.248 53.2301 289.272 53.2451 289.298 53.2515L289.778 53.3694V56.5089L289.298 56.6268C289.272 56.6332 289.248 56.6482 289.231 56.6694C289.214 56.6907 289.204 56.7169 289.203 56.7442V61.8588C289.204 61.8861 289.213 61.9124 289.231 61.9337C289.248 61.9549 289.272 61.97 289.298 61.9764L289.778 62.0943V113.832C289.78 116.008 290.648 118.094 292.191 119.633C293.733 121.171 295.825 122.037 298.006 122.039H330.434C332.616 122.037 334.707 121.171 336.249 119.633C337.792 118.094 338.66 116.008 338.662 113.832V55.5834H339.221V45.9745H338.662V30.0788C338.66 27.903 337.792 25.8171 336.249 24.2785C334.707 22.74 332.616 21.8746 330.434 21.8721L298.006 21.8721Z" fill="#3F3D56"/>
<path d="M317.982 25.1542C318.399 25.1542 318.736 24.8174 318.736 24.402C318.736 23.9866 318.399 23.6499 317.982 23.6499C317.566 23.6499 317.228 23.9866 317.228 24.402C317.228 24.8174 317.566 25.1542 317.982 25.1542Z" fill="#3F3D56"/>
<path d="M153.941 170.102H69.5616C68.3633 170.099 67.215 169.623 66.3676 168.778C65.5203 167.932 65.0428 166.787 65.0396 165.592V124.584C65.0426 123.389 65.52 122.243 66.3672 121.398C67.2145 120.553 68.3627 120.077 69.561 120.073H153.94C155.138 120.076 156.287 120.553 157.134 121.398C157.981 122.243 158.459 123.388 158.462 124.583V165.591C158.459 166.787 157.982 167.932 157.134 168.777C156.287 169.622 155.139 170.099 153.941 170.102Z" fill="white"/>
<path d="M153.941 170.102H69.5616C68.3633 170.099 67.215 169.623 66.3676 168.778C65.5203 167.932 65.0428 166.787 65.0396 165.592V124.584C65.0426 123.389 65.52 122.243 66.3672 121.398C67.2145 120.553 68.3627 120.077 69.561 120.073H153.94C155.138 120.076 156.287 120.553 157.134 121.398C157.981 122.243 158.459 123.388 158.462 124.583V165.591C158.459 166.787 157.982 167.932 157.134 168.777C156.287 169.622 155.139 170.099 153.941 170.102ZM69.5616 121.331C68.6975 121.334 67.8695 121.678 67.2586 122.287C66.6476 122.897 66.3033 123.722 66.3009 124.584V165.591C66.3034 166.453 66.6479 167.279 67.2589 167.889C67.87 168.498 68.6981 168.841 69.5622 168.844H153.939C154.804 168.841 155.632 168.498 156.243 167.888C156.854 167.279 157.198 166.453 157.201 165.591V124.584C157.198 123.722 156.854 122.896 156.243 122.287C155.632 121.677 154.804 121.334 153.939 121.332L69.5616 121.331Z" fill="#3F3D56"/>
<path d="M116.273 164.041C99.6321 164.041 82.2796 163.883 75.8053 163.78C74.9534 163.762 74.1422 163.413 73.5448 162.808C72.9474 162.202 72.6112 161.387 72.6079 160.537V126.591C72.6082 126.287 72.7294 125.995 72.9449 125.78C73.1603 125.564 73.4526 125.443 73.7577 125.442H149.741C150.046 125.442 150.339 125.563 150.555 125.778C150.771 125.993 150.893 126.284 150.894 126.588V149.62C150.88 153.379 149.389 156.984 146.741 159.659C144.093 162.335 140.499 163.869 136.73 163.932C130.696 164.011 123.551 164.041 116.273 164.041Z" fill="#2DBA4E"/>
<path d="M145.231 147.504H76.5736C75.9987 147.502 75.4382 147.324 74.9684 146.994C74.4985 146.663 74.142 146.197 73.9473 145.657L66.1763 123.913C66.0266 123.493 65.9799 123.044 66.0402 122.603C66.1006 122.162 66.2662 121.742 66.5231 121.378C66.78 121.014 67.1207 120.716 67.5167 120.511C67.9127 120.305 68.3523 120.198 68.7986 120.197L154.619 120.078C155.027 120.077 155.43 120.166 155.8 120.338C156.17 120.51 156.497 120.76 156.759 121.072C157.021 121.384 157.212 121.749 157.317 122.142C157.422 122.535 157.44 122.947 157.368 123.347L157.435 123.375L157.188 123.949L157.186 123.955L147.792 145.818C147.578 146.319 147.221 146.745 146.765 147.045C146.31 147.345 145.776 147.504 145.231 147.504ZM154.623 121.336L68.801 121.455C68.5565 121.455 68.3157 121.514 68.0988 121.627C67.8819 121.739 67.6952 121.902 67.5544 122.102C67.4137 122.301 67.323 122.531 67.2899 122.773C67.2568 123.014 67.2824 123.26 67.3644 123.49L75.1351 145.234C75.2419 145.53 75.4374 145.785 75.6949 145.966C75.9524 146.147 76.2595 146.245 76.5745 146.246H145.231C145.529 146.246 145.821 146.159 146.071 145.995C146.32 145.83 146.515 145.597 146.632 145.323L156.027 123.459C156.126 123.227 156.167 122.975 156.144 122.723C156.122 122.472 156.037 122.231 155.898 122.02C155.759 121.81 155.569 121.637 155.347 121.518C155.124 121.398 154.876 121.336 154.623 121.336Z" fill="#3F3D56"/>
<path d="M111.623 152.237C114.592 152.237 116.999 149.836 116.999 146.875C116.999 143.913 114.592 141.513 111.623 141.513C108.654 141.513 106.247 143.913 106.247 146.875C106.247 149.836 108.654 152.237 111.623 152.237Z" fill="white"/>
<path d="M314.707 105.686C317.676 105.686 320.083 103.285 320.083 100.324C320.083 97.3624 317.676 94.9617 314.707 94.9617C311.738 94.9617 309.331 97.3624 309.331 100.324C309.331 103.285 311.738 105.686 314.707 105.686Z" fill="white"/>
<path d="M518.041 178.102L503.68 163.96C502.981 163.266 502.152 162.717 501.239 162.344C500.327 161.97 499.35 161.78 498.363 161.784H498.313C497.319 161.787 496.336 161.986 495.42 162.37C494.504 162.755 493.674 163.317 492.977 164.023C489.766 167.265 487.94 171.621 487.882 176.178C487.825 180.734 489.54 185.135 492.668 188.456C492.82 188.62 492.977 188.777 493.135 188.934C494.008 189.8 494.973 190.57 496.011 191.23C498.85 193.06 502.161 194.028 505.541 194.017H505.648C507.968 194.009 510.263 193.543 512.402 192.644C514.54 191.746 516.478 190.434 518.104 188.783C519.514 187.357 520.298 185.432 520.286 183.43C520.275 181.427 519.467 179.511 518.041 178.102ZM517.209 187.896C514.542 190.575 511.032 192.256 507.268 192.655C503.504 193.054 499.718 192.146 496.547 190.085C495.64 189.487 494.793 188.802 494.018 188.041C490.924 184.993 489.17 180.843 489.143 176.506C489.115 172.168 490.817 167.997 493.873 164.91C494.454 164.32 495.147 163.851 495.911 163.53C496.675 163.209 497.496 163.043 498.326 163.042H498.363C499.185 163.039 499.998 163.198 500.758 163.508C501.518 163.819 502.208 164.276 502.791 164.854L517.152 179.001C518.341 180.174 519.014 181.769 519.025 183.437C519.036 185.105 518.382 186.709 517.209 187.896Z" fill="#3F3D56"/>
<path d="M470.921 131.689L456.561 117.541C455.147 116.142 453.235 115.36 451.244 115.365H451.2C450.205 115.369 449.22 115.569 448.303 115.955C447.386 116.34 446.555 116.903 445.858 117.611C443.203 120.3 441.482 123.766 440.946 127.502C440.41 131.238 441.088 135.046 442.881 138.37L442.887 138.376C443.626 139.735 444.545 140.99 445.618 142.106C445.738 142.245 445.876 142.383 446.015 142.522C449.313 145.787 453.774 147.615 458.421 147.604H458.535C460.855 147.595 463.15 147.127 465.288 146.227C467.426 145.328 469.364 144.015 470.991 142.364C471.689 141.659 472.241 140.823 472.616 139.905C472.99 138.987 473.179 138.004 473.173 137.012C473.167 136.021 472.964 135.041 472.578 134.127C472.192 133.214 471.629 132.385 470.921 131.689ZM470.089 141.484C468.579 143.015 466.78 144.234 464.796 145.068C462.812 145.903 460.682 146.337 458.528 146.346H458.421C455.187 146.345 452.026 145.39 449.334 143.601C446.643 141.813 444.542 139.27 443.296 136.294C442.049 133.317 441.713 130.04 442.329 126.873C442.946 123.707 444.487 120.793 446.759 118.498C447.935 117.312 449.535 116.64 451.207 116.629C452.879 116.619 454.487 117.27 455.678 118.441L470.039 132.582C471.227 133.757 471.899 135.354 471.909 137.023C471.918 138.691 471.264 140.296 470.089 141.484Z" fill="#3F3D56"/>
<path d="M518.959 182.548L503.126 166.951C502.088 165.93 500.687 165.362 499.229 165.371C497.771 165.38 496.377 165.966 495.352 166.999C494.069 168.292 493.054 169.824 492.365 171.508C491.677 173.192 491.327 174.995 491.338 176.813C491.348 178.632 491.718 180.431 492.425 182.107C493.133 183.783 494.165 185.304 495.462 186.582C496.76 187.86 498.297 188.87 499.986 189.555C501.675 190.24 503.483 190.587 505.307 190.574C507.13 190.562 508.933 190.191 510.613 189.483C512.292 188.776 513.816 187.745 515.096 186.449L518.959 182.548Z" fill="#2DBA4E"/>
<path d="M471.843 136.133L456.01 120.536C454.972 119.515 453.57 118.947 452.113 118.956C450.655 118.965 449.261 119.551 448.235 120.584C446.953 121.876 445.938 123.408 445.249 125.092C444.56 126.776 444.211 128.579 444.221 130.398C444.232 132.217 444.601 134.016 445.309 135.692C446.017 137.368 447.049 138.888 448.346 140.166C449.644 141.444 451.181 142.455 452.87 143.14C454.559 143.825 456.367 144.171 458.19 144.159C460.014 144.147 461.817 143.776 463.497 143.068C465.176 142.36 466.7 141.329 467.979 140.034L471.843 136.133Z" fill="#2DBA4E"/>
<path d="M501.561 192.262L501.182 193.256C499.404 192.583 497.68 191.908 496.011 191.23C466.444 179.196 452.329 165.111 442.887 138.376L442.881 138.37C442.433 137.112 441.998 135.824 441.575 134.507L442.572 134.187C442.905 135.453 443.392 136.674 444.022 137.823C444.539 139.288 445.071 140.716 445.618 142.106C454.492 164.671 467.579 177.567 492.668 188.456C493.929 189.004 495.222 189.547 496.547 190.086C498.085 191.085 499.779 191.821 501.561 192.262Z" fill="#3F3D56"/>
<path d="M456.298 146.459L455.411 147.355L488.168 179.625L489.055 178.729L456.298 146.459Z" fill="#3F3D56"/>
<path d="M178.97 119.721L178.986 99.0479L166.803 100.134L171.103 113.172L155.495 136.771C154.519 136.99 153.627 137.487 152.93 138.201C152.232 138.916 151.758 139.818 151.565 140.797C151.373 141.776 151.47 142.79 151.845 143.715C152.22 144.64 152.856 145.436 153.677 146.006C154.498 146.577 155.467 146.896 156.467 146.926C157.467 146.957 158.454 146.696 159.308 146.176C160.162 145.657 160.846 144.901 161.276 144C161.707 143.099 161.865 142.093 161.732 141.105L178.97 119.721Z" fill="#FFB6B6"/>
</g>
<defs>
<clipPath id="clip0_30_900">
<rect width="564" height="282" fill="white"/>
</clipPath>
</defs>
</svg>
