<svg width="468" height="347" viewBox="0 0 468 347" fill="none" xmlns="http://www.w3.org/2000/svg">
<g clip-path="url(#clip0_30_992)">
<path d="M254.632 35.3902C260.735 35.3902 265.682 30.4667 265.682 24.3934C265.682 18.32 260.735 13.3966 254.632 13.3966C248.529 13.3966 243.582 18.32 243.582 24.3934C243.582 30.4667 248.529 35.3902 254.632 35.3902Z" fill="#2DBA4E"/>
<path d="M253.537 28.5883C253.289 28.5887 253.047 28.5087 252.848 28.3603L252.835 28.3511L250.239 26.3741C249.733 25.9882 249.637 25.2673 250.025 24.7639C250.413 24.2605 251.137 24.1652 251.643 24.5512L253.325 25.8348L257.3 20.6742C257.687 20.1711 258.411 20.0759 258.917 20.4616L258.893 20.496L258.918 20.4619C259.423 20.8482 259.518 21.5684 259.131 22.0718L254.456 28.1391C254.237 28.4224 253.898 28.588 253.538 28.5869L253.537 28.5883Z" fill="white"/>
<path d="M254.632 109.732C260.735 109.732 265.682 104.808 265.682 98.7351C265.682 92.6617 260.735 87.7383 254.632 87.7383C248.529 87.7383 243.582 92.6617 243.582 98.7351C243.582 104.808 248.529 109.732 254.632 109.732Z" fill="#2DBA4E"/>
<path d="M253.537 102.93C253.289 102.93 253.047 102.85 252.848 102.702L252.835 102.693L250.239 100.716C249.733 100.33 249.637 99.609 250.025 99.1056C250.413 98.6022 251.137 98.507 251.643 98.8929L253.325 100.177L257.3 95.016C257.687 94.5128 258.411 94.4176 258.917 94.8034L258.893 94.8377L258.918 94.8036C259.423 95.1899 259.518 95.9101 259.131 96.4135L254.456 102.481C254.237 102.764 253.898 102.93 253.538 102.929L253.537 102.93Z" fill="white"/>
<path d="M282.382 214.289C282.247 210.845 284.942 207.944 288.403 207.809C288.772 207.794 289.142 207.812 289.508 207.863L299.628 188.103L305.346 198.125L294.859 215.353C294.155 218.747 290.82 220.93 287.409 220.23C284.556 219.643 282.478 217.188 282.382 214.289Z" fill="#FFB7B7"/>
<path d="M329.564 338.716L321.622 338.715L317.844 308.229L329.565 308.229L329.564 338.716Z" fill="#FFB7B7"/>
<path d="M331.589 346.377L305.98 346.376V346.054C305.981 340.576 310.443 336.135 315.948 336.135H315.949L331.59 336.135L331.589 346.377Z" fill="#2F2E41"/>
<path d="M372.618 338.716L364.675 338.715L360.897 308.229L372.619 308.229L372.618 338.716Z" fill="#FFB7B7"/>
<path d="M374.643 346.377L349.034 346.376V346.054C349.035 340.576 353.497 336.135 359.002 336.135H359.003L374.644 336.135L374.643 346.377Z" fill="#2F2E41"/>
<path d="M294.581 197.092L291.114 202.843C291.114 202.843 296.893 202.843 298.048 211.469L302.671 205.718L294.581 197.092Z" fill="#E5E5E5"/>
<path d="M355.255 185.015C355.255 185.015 364.501 209.168 366.234 224.12C367.968 239.072 370.857 278.752 370.857 278.752L376.636 329.934L360.456 332.234L353.522 280.477L337.92 229.296L334.453 280.477L331.564 327.058L316.539 327.633L315.384 279.327L309.027 217.794L312.494 188.466L355.255 185.015Z" fill="#2F2E41"/>
<path d="M343.987 111.694L349.766 115.719L357.278 191.054L310.472 192.203L316.828 139.872L322.607 124.92L326.778 119.432L343.987 111.694Z" fill="#E5E5E5"/>
<path d="M345.143 165.75L346.911 113.73C346.911 113.73 350.344 113.994 351.499 115.719C352.655 117.444 371.724 120.895 371.724 120.895L368.257 174.376C368.257 174.376 382.703 216.932 377.503 219.232C372.302 221.533 363.056 220.957 363.056 220.957L345.143 165.75Z" fill="#2F2E41"/>
<path d="M317.117 159.137L323.247 124.078L309.605 133.259L313.072 158.562L310.183 175.814C310.183 175.814 299.204 223.545 302.671 225.271C306.138 226.996 310.183 225.271 310.183 225.271L317.117 176.964V159.137Z" fill="#2F2E41"/>
<path d="M313.65 132.109L309.605 133.259L307.872 156.262L304.982 176.389L291.114 201.117C291.114 201.117 298.048 196.517 300.937 209.743L316.211 183.28L313.65 132.109Z" fill="#2F2E41"/>
<path d="M345.081 209.573C345.62 206.168 348.831 203.843 352.252 204.379C352.617 204.436 352.976 204.525 353.325 204.645L367.107 187.216L370.762 198.153L357.114 213.027C355.761 216.22 352.063 217.718 348.854 216.372C346.169 215.245 344.61 212.435 345.081 209.573Z" fill="#FFB7B7"/>
<path d="M368.546 203.417L363.345 209.743L356.411 197.667L359.3 192.492L368.546 203.417Z" fill="#E5E5E5"/>
<path d="M367.39 122.907L372.013 120.607C372.013 120.607 375.48 125.208 376.058 129.233C376.636 133.259 379.525 138.434 379.525 141.31C379.525 144.185 387.615 171.214 387.615 171.214L369.124 208.593C369.124 208.593 365.079 194.792 356.411 193.641L370.857 173.514L362.767 159.137L367.39 122.907Z" fill="#2F2E41"/>
<path d="M467.416 346.732H245.065C244.743 346.732 244.482 346.472 244.482 346.151C244.482 345.831 244.743 345.57 245.065 345.57H467.416C467.739 345.57 468 345.831 468 346.151C468 346.472 467.739 346.732 467.416 346.732Z" fill="#CBCBCB"/>
<path d="M213.013 123.128H0V74.3417H213.013V123.128Z" fill="white"/>
<path d="M30.7428 90.4729C29.5965 90.4729 28.6672 91.3977 28.6672 92.5385C28.6672 93.6792 29.5965 94.604 30.7428 94.604H182.28C183.426 94.604 184.355 93.6792 184.355 92.5385C184.355 91.3977 183.426 90.4729 182.28 90.4729H30.7428Z" fill="#2DBA4E"/>
<path d="M30.7427 102.866C29.5965 102.864 28.6653 103.787 28.6628 104.927C28.6604 106.068 29.5877 106.995 30.734 106.997H126.537C127.683 106.997 128.613 106.072 128.613 104.932C128.613 103.791 127.683 102.866 126.537 102.866L30.7427 102.866Z" fill="#2DBA4E"/>
<path d="M213.013 123.128H0V74.3417H213.013V123.128ZM3.50159 119.644H209.512V77.8265H3.50159V119.644Z" fill="#E5E5E5"/>
<path d="M213.013 197.47H0V148.683H213.013V197.47Z" fill="white"/>
<path d="M30.7428 164.815C29.5965 164.815 28.6672 165.739 28.6672 166.88C28.6672 168.021 29.5965 168.946 30.7428 168.946H182.28C183.426 168.946 184.355 168.021 184.355 166.88C184.355 165.739 183.426 164.815 182.28 164.815H30.7428Z" fill="#E6E6E6"/>
<path d="M30.7427 177.208C29.5965 177.205 28.6653 178.128 28.6628 179.269C28.6604 180.41 29.5877 181.337 30.734 181.339H126.537C127.683 181.339 128.613 180.414 128.613 179.273C128.613 178.133 127.683 177.208 126.537 177.208H30.7427Z" fill="#E6E6E6"/>
<path d="M213.013 197.47H0V148.683H213.013V197.47ZM3.50159 193.985H209.512V152.168H3.50159V193.985Z" fill="#E5E5E5"/>
<path d="M214.764 48.7867H1.75073V0H214.764V48.7867Z" fill="white"/>
<path d="M32.4934 16.1312C31.3471 16.1333 30.4196 17.0597 30.4216 18.2005C30.4237 19.3383 31.35 20.2602 32.4934 20.2623H184.03C185.176 20.2602 186.104 19.3337 186.102 18.193C186.1 17.0551 185.174 16.1333 184.03 16.1312H32.4934Z" fill="#2DBA4E"/>
<path d="M32.4935 28.5245C31.3472 28.5221 30.416 29.4449 30.4136 30.5856C30.4112 31.7264 31.3384 32.6531 32.4847 32.6555H128.288C129.434 32.6576 130.365 31.7345 130.367 30.5938C130.369 29.453 129.442 28.5265 128.295 28.5245C128.293 28.5244 128.29 28.5244 128.288 28.5245L32.4935 28.5245Z" fill="#2DBA4E"/>
<path d="M214.764 48.7867H1.75073V0H214.764V48.7867ZM5.25232 45.302H211.263V3.48477H5.25232V45.302Z" fill="#E5E5E5"/>
<path d="M431.424 347V304.985C431.424 304.985 447.877 334.772 431.424 347Z" fill="#F1F1F1"/>
<path d="M432.44 346.993L401.341 318.579C401.341 318.579 434.515 326.661 432.44 346.993Z" fill="#F1F1F1"/>
<path d="M282.645 213.024C288.748 213.024 293.695 208.1 293.695 202.027C293.695 195.953 288.748 191.03 282.645 191.03C276.542 191.03 271.595 195.953 271.595 202.027C271.595 208.1 276.542 213.024 282.645 213.024Z" fill="#2DBA4E"/>
<path d="M281.55 206.222C281.301 206.222 281.059 206.142 280.86 205.994L280.848 205.985L278.251 204.008C277.745 203.622 277.65 202.901 278.038 202.397C278.425 201.894 279.15 201.799 279.656 202.185L281.338 203.468L285.312 198.308C285.7 197.805 286.424 197.709 286.93 198.095L286.905 198.129L286.931 198.095C287.436 198.482 287.531 199.202 287.144 199.705L282.469 205.773C282.25 206.056 281.91 206.221 281.551 206.22L281.55 206.222Z" fill="white"/>
<path d="M327.741 112.647C336.477 112.647 343.558 105.599 343.558 96.9056C343.558 88.212 336.477 81.1644 327.741 81.1644C319.005 81.1644 311.924 88.212 311.924 96.9056C311.924 105.599 319.005 112.647 327.741 112.647Z" fill="#FFB6B6"/>
<path d="M341.558 109C341.558 109 346.243 99.5579 346.159 95.9531C346.076 92.3483 343.516 83.0721 342.436 82.4604C341.356 81.8486 329.708 75.963 326.551 77.7327C323.395 79.5023 317.839 85.5549 311.848 87.1924C310.153 87.6556 311.632 96.3201 311.632 96.3201L318.644 95.3108C318.644 95.3108 325.954 88.7785 326.27 93.2266C326.586 97.6746 333.365 95.822 333.365 95.822L333.449 99.4268L336.224 99.5753L336.988 95.739C336.988 95.739 338.234 103.56 336.623 107.628C335.012 111.696 341.558 109 341.558 109Z" fill="#2F2E41"/>
</g>
<defs>
<clipPath id="clip0_30_992">
<rect width="468" height="347" fill="white"/>
</clipPath>
</defs>
</svg>
