<svg width="372" height="350" viewBox="0 0 372 350" fill="none" xmlns="http://www.w3.org/2000/svg">
<g clip-path="url(#clip0_30_932)">
<path d="M270.074 198.611V295.296L286.26 321.652L287.492 323.657H351.357L352.647 198.611H270.074Z" fill="#E6E6E6"/>
<path opacity="0.1" d="M270.074 198.611V295.296L286.26 321.652L287.253 198.611H270.074Z" fill="black"/>
<path d="M115.894 196.032V292.718L99.7083 319.074L98.4765 321.079H34.6114L33.321 196.032H115.894Z" fill="#E6E6E6"/>
<path opacity="0.1" d="M115.894 196.032V292.718L99.7084 319.074L98.7151 196.032H115.894Z" fill="black"/>
<path d="M372 194.099V199.9H24.9347V191.52L57.1897 174.762H343.616L372 194.099Z" fill="#E6E6E6"/>
<path opacity="0.1" d="M372 194.099V199.9H24.9347V191.52L372 194.099Z" fill="black"/>
<path d="M74.6079 223.104H59.125L52.674 218.592H81.7038L74.6079 223.104Z" fill="#3F3D56"/>
<path d="M74.6079 241.797H59.125L52.674 237.285H81.7038L74.6079 241.797Z" fill="#3F3D56"/>
<path d="M74.6079 268.224H59.125L52.674 263.712H81.7038L74.6079 268.224Z" fill="#3F3D56"/>
<path d="M74.6079 294.651H59.125L52.674 290.14H81.7038L74.6079 294.651Z" fill="#3F3D56"/>
<path d="M311.36 225.682H326.843L333.294 221.171H304.264L311.36 225.682Z" fill="#3F3D56"/>
<path d="M311.36 244.375H326.843L333.294 239.863H304.264L311.36 244.375Z" fill="#3F3D56"/>
<path d="M311.36 270.803H326.843L333.294 266.291H304.264L311.36 270.803Z" fill="#3F3D56"/>
<path d="M311.36 297.23H326.843L333.294 292.718H304.264L311.36 297.23Z" fill="#3F3D56"/>
<path d="M321.904 62.9547H191.563C190.915 62.9547 190.274 63.082 189.676 63.3295C189.078 63.577 188.535 63.9398 188.077 64.3971C187.619 64.8545 187.256 65.3975 187.008 65.9951C186.761 66.5927 186.633 67.2332 186.633 67.88V155.608C186.633 156.255 186.761 156.896 187.008 157.493C187.256 158.091 187.619 158.634 188.077 159.091C188.535 159.549 189.078 159.911 189.676 160.159C190.274 160.406 190.915 160.534 191.563 160.534H241.041L239.187 172.359C239.187 172.359 228.594 177.982 236.042 178.148C243.491 178.313 278.582 178.148 278.582 178.148C278.582 178.148 285.369 178.148 274.61 172.194L272.866 160.534H321.904C322.551 160.534 323.192 160.406 323.79 160.159C324.388 159.911 324.932 159.549 325.389 159.091C325.847 158.634 326.21 158.091 326.458 157.493C326.706 156.896 326.833 156.255 326.833 155.608V67.88C326.833 67.2332 326.706 66.5927 326.458 65.9951C326.21 65.3975 325.847 64.8545 325.389 64.3971C324.932 63.9398 324.388 63.577 323.79 63.3295C323.192 63.082 322.551 62.9547 321.904 62.9547Z" fill="#3F3D56"/>
<path d="M322.115 68.1645H191.351V141.266H322.115V68.1645Z" fill="#F2F2F2"/>
<path d="M256.733 66.676C257.19 66.676 257.561 66.3057 257.561 65.849C257.561 65.3923 257.19 65.0221 256.733 65.0221C256.276 65.0221 255.905 65.3923 255.905 65.849C255.905 66.3057 256.276 66.676 256.733 66.676Z" fill="#F2F2F2"/>
<path d="M256.733 156.978C258.47 156.978 259.878 155.571 259.878 153.835C259.878 152.1 258.47 150.693 256.733 150.693C254.996 150.693 253.588 152.1 253.588 153.835C253.588 155.571 254.996 156.978 256.733 156.978Z" fill="#F2F2F2"/>
<path d="M251.832 187.078V188.733H162.78V187.409L162.902 187.078L165.097 181.125H250.012L251.832 187.078Z" fill="#3F3D56"/>
<path d="M286.103 185.459C285.94 186.152 285.328 186.883 283.944 187.575C278.978 190.055 268.881 186.913 268.881 186.913C268.881 186.913 261.102 185.59 261.102 182.117C261.32 181.967 261.548 181.832 261.784 181.712C263.871 180.608 270.794 177.885 283.067 181.827C283.972 182.111 284.779 182.639 285.401 183.355C285.676 183.625 285.883 183.957 286.005 184.323C286.127 184.688 286.16 185.078 286.103 185.459Z" fill="#3F3D56"/>
<path opacity="0.1" d="M286.103 185.459C280.025 187.786 274.607 187.96 269.047 184.101C266.944 182.548 264.398 181.711 261.784 181.712C263.871 180.608 270.794 177.885 283.068 181.827C283.972 182.111 284.779 182.639 285.401 183.355C285.676 183.625 285.883 183.957 286.005 184.323C286.127 184.688 286.16 185.078 286.103 185.459Z" fill="black"/>
<path d="M278.482 184.101C279.67 184.101 280.634 183.805 280.634 183.44C280.634 183.075 279.67 182.778 278.482 182.778C277.293 182.778 276.33 183.075 276.33 183.44C276.33 183.805 277.293 184.101 278.482 184.101Z" fill="#F2F2F2"/>
<path opacity="0.1" d="M251.832 187.078V188.733H162.78V187.409L162.902 187.078H251.832Z" fill="black"/>
<path d="M49.5144 7.2564e-05C48.6106 -0.0740706 47.7056 0.127931 46.9194 0.579309C46.1473 1.10759 45.6607 2.03308 45.164 2.89431C43.2649 6.22643 40.6939 9.12816 37.6139 11.4157C35.3705 13.0578 32.5183 15.1053 32.9021 18.133C33.1046 19.1328 33.4743 20.0914 33.9956 20.9685C36.0652 25.1428 41.7128 28.3687 41.1573 33.1319C43.2135 29.6924 40.4632 27.9917 42.5193 24.5524C43.4986 22.9144 45.1996 21.0655 46.678 22.0941C47.173 22.4385 47.4981 23.0563 48.0135 23.3585C49.2433 24.0796 50.5517 22.701 51.6404 21.7245C55.3944 18.3574 60.7329 19.2395 65.4043 20.2886C67.6097 20.7839 70.0321 21.4337 71.3358 23.5398C73.0499 26.3088 69.7072 29.2994 68.8627 32.4301C68.7937 32.6968 68.7905 32.9763 68.8532 33.2446C68.9159 33.5129 69.0427 33.762 69.2228 33.9707C69.4029 34.1793 69.6308 34.3413 69.8872 34.4427C70.1436 34.5441 70.4207 34.582 70.695 34.5531C72.0966 34.4149 73.7571 34.3017 73.84 33.6871C75.6036 33.7498 77.7645 33.5503 78.5201 31.7155C78.751 30.9895 78.8731 30.2334 78.8823 29.4717C79.1597 26.3896 80.4688 23.5778 81.3361 20.6444C82.2034 17.711 82.5806 14.2732 81.1169 11.6724C80.5946 10.8071 79.9486 10.0226 79.1993 9.34381C70.8935 1.3126 59.9732 -0.0118488 49.5144 7.2564e-05Z" fill="#2F2E41"/>
<path d="M42.9637 39.1481C42.9637 39.1481 44.77 54.1887 38.1467 55.392C31.5233 56.5952 44.1679 77.0505 44.1679 77.0505L74.274 80.6602L67.0486 56.5952C67.0486 56.5952 62.2316 54.7904 65.2422 42.7579C68.2528 30.7254 42.9637 39.1481 42.9637 39.1481Z" fill="#FFB8B8"/>
<path d="M24.5989 297.546L27.0076 330.635H39.6517L36.0394 297.546H24.5989Z" fill="#FFB8B8"/>
<path d="M117.326 234.977L119.132 262.652L132.981 256.636L127.562 233.774L117.326 234.977Z" fill="#FFB8B8"/>
<path d="M15.567 171.205C15.567 171.205 16.1692 206.099 19.7819 217.53C23.3947 228.961 22.7925 229.562 22.1904 231.367C21.5883 233.172 20.9862 231.969 20.9862 234.977C20.9862 237.985 19.7819 285.513 20.9862 289.725C22.1904 293.936 17.3734 301.156 20.9862 301.757C24.5989 302.359 41.4584 301.757 42.0605 298.148C42.6626 294.538 37.2435 293.335 39.652 290.928C42.0605 288.522 45.6732 239.188 45.6732 239.188L54.1029 204.896L69.7581 186.847H102.875L113.111 226.554C113.111 226.554 108.896 237.985 111.907 237.985C114.917 237.985 132.981 241.595 132.981 228.359C132.981 215.123 126.96 176.018 125.756 174.815C124.551 173.611 126.358 169.4 124.551 167.595C122.745 165.79 101.671 153.156 93.8431 150.75C86.0155 148.343 75.0347 145.479 75.0347 145.479L15.567 171.205Z" fill="#2F2E41"/>
<path d="M132.981 251.822C132.981 251.822 123.949 248.814 119.734 257.839C115.519 266.863 117.326 269.27 117.326 269.27C117.326 269.27 131.175 274.083 133.583 271.676C134.631 270.629 137.958 270.265 141.384 270.189C146.6 270.072 147.988 262.698 143.061 260.98C142.914 260.929 142.766 260.885 142.615 260.847C137.798 259.644 132.981 251.822 132.981 251.822Z" fill="#2F2E41"/>
<path d="M56.5114 49.0749C66.4877 49.0749 74.5751 40.9942 74.5751 31.0262C74.5751 21.0581 66.4877 12.9774 56.5114 12.9774C46.5351 12.9774 38.4477 21.0581 38.4477 31.0262C38.4477 40.9942 46.5351 49.0749 56.5114 49.0749Z" fill="#FFB8B8"/>
<path d="M33.0286 62.9123C33.0286 62.9123 62.5326 68.9286 69.7581 59.3026C76.9836 49.6766 79.9942 86.3757 79.9942 86.3757L83.607 124.88L78.1878 145.937C78.1878 145.937 49.8881 168.798 40.8562 170.603C31.8244 172.408 17.9755 173.611 17.9755 173.611C17.9755 173.611 22.1904 106.831 22.1904 105.628C22.1904 104.424 33.0286 62.9123 33.0286 62.9123Z" fill="#2DBA4E"/>
<path d="M42.0015 51.629C42.0015 51.629 35.4371 47.8717 33.6307 51.4814C31.8244 55.0912 14.9649 64.1155 13.1586 64.1155C11.3522 64.1155 16.7713 114.05 14.3628 120.067C11.9543 126.083 0.51397 170.002 7.13733 173.611C13.7607 177.221 8.94369 170.002 15.567 179.026C22.1904 188.05 54.705 188.05 56.5114 184.441C58.3178 180.831 42.0605 153.758 45.0711 128.489C48.0817 103.221 52.8987 68.3269 48.6838 63.5139C44.469 58.7009 42.0015 51.629 42.0015 51.629Z" fill="#2F2E41"/>
<path d="M63.7369 55.6928L64.5756 52.8089C64.5756 52.8089 89.6282 61.1074 90.8325 66.5221C92.0367 71.9367 91.4346 109.839 87.2197 112.847C83.0049 115.855 76.9836 120.668 81.1985 127.888C85.4133 135.107 90.2303 142.928 93.8431 143.53C97.4558 144.132 104.079 148.343 102.273 152.554C100.466 156.766 78.79 148.945 78.79 148.945C78.79 148.945 64.339 138.115 64.9412 121.27C65.5433 104.424 63.7369 55.6928 63.7369 55.6928Z" fill="#2F2E41"/>
<path d="M84.8112 126.685L70.3602 153.758C70.3602 153.758 49.2859 175.416 61.3284 177.823C73.3709 180.229 79.9942 157.969 79.9942 157.969L95.6494 135.709L84.8112 126.685Z" fill="#FFB8B8"/>
<path d="M50.3944 4.7225C49.6663 4.6686 48.937 4.80994 48.2819 5.13191C47.6895 5.56416 47.2013 6.12318 46.853 6.76813C45.2469 9.18195 43.1534 11.2335 40.7069 12.791C38.8806 13.9516 36.5589 15.3988 36.8713 17.5387C37.0409 18.2562 37.3428 18.9358 37.7615 19.5429C39.452 22.523 40.125 25.9723 39.6786 29.3688L44.7001 22.0759C45.4972 20.9182 46.882 19.6114 48.0855 20.3384C48.4884 20.5819 48.753 21.0185 49.1726 21.2321C50.1737 21.7417 51.2388 20.7674 52.125 20.0772C55.1809 17.6973 59.5267 18.3208 63.3295 19.0623C65.1247 19.4124 67.0966 19.8717 68.1579 21.3602C69.9215 23.8339 68.08 27.4082 69.1093 30.2659C69.3974 30.0644 69.6421 29.8071 69.8288 29.5093C70.0156 29.2115 70.1406 28.8792 70.1965 28.5323C71.6321 28.5766 73.3911 28.4356 74.0062 27.1387C74.1933 26.6305 74.293 26.0943 74.3011 25.5528C74.5269 23.3745 75.5926 21.3871 76.2986 19.3138C77.0046 17.2405 77.3116 14.8107 76.1202 12.9724C75.6843 12.3496 75.1582 11.7949 74.5592 11.3266C67.7979 5.65018 58.9083 4.71408 50.3944 4.7225Z" fill="#2F2E41"/>
<path d="M84.8112 64.1155L90.4212 65.6034C90.4212 65.6034 103.477 99.0098 100.466 121.872C97.4558 144.733 95.6494 139.92 95.6494 139.92C95.6494 139.92 90.8324 129.091 79.9942 131.498L84.8112 64.1155Z" fill="#2F2E41"/>
<path d="M25.4331 326.262C23.9811 328.234 24.2722 331.052 22.986 333.135C21.8712 334.941 19.77 335.888 18.3755 337.488C17.9305 338.02 17.5339 338.59 17.1902 339.192C15.8966 341.357 14.8451 344.132 16.1191 346.308C17.144 348.059 19.2982 348.744 21.274 349.21C23.7711 349.799 26.3657 350.271 28.8917 349.821C31.4177 349.37 33.8864 347.825 34.787 345.424C34.964 344.821 35.1745 344.227 35.4174 343.647C36.7865 340.954 41.0809 340.925 42.4821 338.248C43.4627 336.375 42.5613 334.111 41.6602 332.198L38.9083 326.357C37.9951 324.418 34.293 325.533 32.363 325.068C29.8458 324.462 27.2439 323.795 25.4331 326.262Z" fill="#2F2E41"/>
<path d="M5.33095 138.717L30.6201 177.823C30.6201 177.823 46.2753 197.676 51.0923 188.652C55.9093 179.628 34.2329 164.587 34.2329 164.587L17.9755 134.506L5.33095 138.717Z" fill="#FFB8B8"/>
<path d="M17.9755 65.3188L13.1585 64.1155C13.1585 64.1155 3.52457 67.1237 1.11608 79.7578C-1.29241 92.3919 0.513958 142.928 3.52457 143.53C6.53519 144.132 18.394 134.731 20.2922 136.724C22.1904 138.717 16.1691 128.489 17.9755 123.075C19.7819 117.66 17.9755 65.3188 17.9755 65.3188Z" fill="#2F2E41"/>
<path d="M244.356 92.1735H228.794V95.9169H244.356V92.1735Z" fill="#2DBA4E"/>
<path d="M298.249 92.1735H292.773V95.9169H298.249V92.1735Z" fill="#2DBA4E"/>
<path d="M309.2 92.1735H303.724V95.9169H309.2V92.1735Z" fill="#2DBA4E"/>
<path d="M287.009 92.1735H249.832V95.9169H287.009V92.1735Z" fill="#2DBA4E"/>
<path d="M224.759 116.362H209.197V120.105H224.759V116.362Z" fill="#2DBA4E"/>
<path d="M278.651 116.362H273.176V120.105H278.651V116.362Z" fill="#2DBA4E"/>
<path d="M289.603 116.362H284.127V120.105H289.603V116.362Z" fill="#2DBA4E"/>
<path d="M267.412 116.362H230.235V120.105H267.412V116.362Z" fill="#2DBA4E"/>
<path d="M289.026 100.524H273.464V104.268H289.026V100.524Z" fill="#2DBA4E"/>
<path d="M310.065 100.524H294.502V104.268H310.065V100.524Z" fill="#2DBA4E"/>
<path d="M214.672 100.524H209.197V104.268H214.672V100.524Z" fill="#2DBA4E"/>
<path d="M225.624 100.524H220.148V104.268H225.624V100.524Z" fill="#2DBA4E"/>
<path d="M268.276 100.524H231.099V104.268H268.276V100.524Z" fill="#2DBA4E"/>
<path d="M256.749 108.587H241.186V112.33H256.749V108.587Z" fill="#2DBA4E"/>
<path d="M235.71 108.587H220.148V112.33H235.71V108.587Z" fill="#2DBA4E"/>
<path d="M214.672 108.587H209.197V112.33H214.672V108.587Z" fill="#2DBA4E"/>
<path d="M310.065 108.587H304.589V112.33H310.065V108.587Z" fill="#2DBA4E"/>
<path d="M299.113 108.587H261.936V112.33H299.113V108.587Z" fill="#2DBA4E"/>
</g>
<defs>
<clipPath id="clip0_30_932">
<rect width="372" height="350" fill="white"/>
</clipPath>
</defs>
</svg>
