<svg width="564" height="317" viewBox="0 0 564 317" fill="none" xmlns="http://www.w3.org/2000/svg">
<g clip-path="url(#clip0_30_859)">
<path d="M42.4333 316.841L41.8398 315.746C49.7982 311.452 59.703 306.108 64.8763 297.337C69.9761 288.692 70.0905 276.951 65.1749 266.698C60.9917 257.972 53.3073 250.154 42.9527 244.089C40.9102 242.893 38.7662 241.759 36.6927 240.663C31.6809 238.013 26.4984 235.272 22.2251 231.384C16.3395 226.029 11.8863 217.042 15.2054 209.038C16.297 206.483 18.0847 204.284 20.3655 202.692C22.6464 201.1 25.329 200.178 28.1087 200.03L28.1791 201.274C25.6325 201.408 23.1748 202.253 21.0848 203.711C18.9949 205.169 17.3563 207.182 16.3552 209.522C13.2709 216.961 17.5026 225.402 23.0661 230.464C27.2225 234.246 32.334 236.949 37.2772 239.562C39.3624 240.665 41.5188 241.805 43.5846 243.015C54.1547 249.206 62.0099 257.21 66.3008 266.161C71.3931 276.783 71.2595 288.971 65.9519 297.969C60.6023 307.038 50.5281 312.474 42.4333 316.841Z" fill="#F1F1F1"/>
<path d="M36.0187 206.593C42.0499 206.593 46.9392 204.224 46.9392 201.301C46.9392 198.378 42.0499 196.009 36.0187 196.009C29.9875 196.009 25.0983 198.378 25.0983 201.301C25.0983 204.224 29.9875 206.593 36.0187 206.593Z" fill="#F1F1F1"/>
<path d="M44.7552 241.46C50.7864 241.46 55.6757 239.09 55.6757 236.167C55.6757 233.245 50.7864 230.875 44.7552 230.875C38.724 230.875 33.8347 233.245 33.8347 236.167C33.8347 239.09 38.724 241.46 44.7552 241.46Z" fill="#F1F1F1"/>
<path d="M24.7863 247.063C30.8175 247.063 35.7068 244.694 35.7068 241.771C35.7068 238.848 30.8175 236.479 24.7863 236.479C18.7551 236.479 13.8658 238.848 13.8658 241.771C13.8658 244.694 18.7551 247.063 24.7863 247.063Z" fill="#F1F1F1"/>
<path d="M55.9876 276.326C62.0188 276.326 66.9081 273.956 66.9081 271.034C66.9081 268.111 62.0188 265.741 55.9876 265.741C49.9564 265.741 45.0671 268.111 45.0671 271.034C45.0671 273.956 49.9564 276.326 55.9876 276.326Z" fill="#F1F1F1"/>
<path d="M77.8286 276.326C83.8598 276.326 88.749 273.956 88.749 271.034C88.749 268.111 83.8598 265.741 77.8286 265.741C71.7973 265.741 66.9081 268.111 66.9081 271.034C66.9081 273.956 71.7973 276.326 77.8286 276.326Z" fill="#F1F1F1"/>
<path d="M564 9.60654H212.8V175.879H564V9.60654Z" fill="#E6E6E6"/>
<path d="M553.958 23.8647H222.843V162.591H553.958V23.8647Z" fill="white"/>
<path d="M563.85 0H212.65V14.8862H563.85V0Z" fill="#2DBA4E"/>
<path d="M223.738 9.64466C225.265 9.64466 226.503 8.40937 226.503 6.88556C226.503 5.36176 225.265 4.12646 223.738 4.12646C222.211 4.12646 220.972 5.36176 220.972 6.88556C220.972 8.40937 222.211 9.64466 223.738 9.64466Z" fill="white"/>
<path d="M234.234 9.64466C235.762 9.64466 237 8.40937 237 6.88556C237 5.36176 235.762 4.12646 234.234 4.12646C232.707 4.12646 231.469 5.36176 231.469 6.88556C231.469 8.40937 232.707 9.64466 234.234 9.64466Z" fill="white"/>
<path d="M244.731 9.64466C246.258 9.64466 247.497 8.40937 247.497 6.88556C247.497 5.36176 246.258 4.12646 244.731 4.12646C243.204 4.12646 241.966 5.36176 241.966 6.88556C241.966 8.40937 243.204 9.64466 244.731 9.64466Z" fill="white"/>
<path d="M370.942 56.7871C370.587 56.7871 370.246 56.928 369.995 57.1786C369.743 57.4293 369.602 57.7693 369.602 58.1238C369.602 58.4783 369.743 58.8183 369.995 59.069C370.246 59.3197 370.587 59.4605 370.942 59.4605H444.455C444.81 59.4605 445.151 59.3197 445.402 59.069C445.653 58.8183 445.794 58.4783 445.794 58.1238C445.794 57.7693 445.653 57.4293 445.402 57.1786C445.151 56.928 444.81 56.7871 444.455 56.7871H370.942Z" fill="#E6E6E6"/>
<path d="M370.942 64.8079C370.587 64.8087 370.247 64.9498 369.996 65.2004C369.746 65.451 369.605 65.7906 369.605 66.1446C369.605 66.4986 369.746 66.8382 369.996 67.0888C370.247 67.3393 370.587 67.4805 370.942 67.4813H408.472C408.826 67.4805 409.166 67.3393 409.417 67.0888C409.668 66.8382 409.808 66.4986 409.808 66.1446C409.808 65.7906 409.668 65.451 409.417 65.2004C409.166 64.9498 408.826 64.8087 408.472 64.8079H370.942Z" fill="#E6E6E6"/>
<path d="M369.092 103.63C368.737 103.63 368.396 103.771 368.145 104.021C367.893 104.272 367.752 104.612 367.752 104.967C367.752 105.321 367.893 105.661 368.145 105.912C368.396 106.162 368.737 106.303 369.092 106.303H506.929C507.284 106.303 507.625 106.162 507.876 105.912C508.128 105.661 508.269 105.321 508.269 104.967C508.269 104.612 508.128 104.272 507.876 104.021C507.625 103.771 507.284 103.63 506.929 103.63H369.092Z" fill="#E6E6E6"/>
<path d="M369.092 111.651C368.737 111.651 368.397 111.793 368.147 112.043C367.896 112.294 367.755 112.633 367.755 112.987C367.755 113.341 367.896 113.681 368.147 113.932C368.397 114.182 368.737 114.323 369.092 114.324H470.946C471.301 114.323 471.641 114.182 471.891 113.932C472.142 113.681 472.283 113.341 472.283 112.987C472.283 112.633 472.142 112.294 471.891 112.043C471.641 111.793 471.301 111.651 470.946 111.651H369.092Z" fill="#E6E6E6"/>
<path d="M369.092 119.49C368.737 119.491 368.397 119.632 368.147 119.883C367.896 120.133 367.755 120.473 367.755 120.827C367.755 121.181 367.896 121.52 368.147 121.771C368.397 122.021 368.737 122.163 369.092 122.163H506.929C507.284 122.163 507.624 122.021 507.874 121.771C508.125 121.52 508.266 121.181 508.266 120.827C508.266 120.473 508.125 120.133 507.874 119.883C507.624 119.632 507.284 119.491 506.929 119.49H369.092Z" fill="#E6E6E6"/>
<path d="M369.092 127.511C368.737 127.512 368.397 127.653 368.147 127.903C367.896 128.154 367.755 128.493 367.755 128.848C367.755 129.202 367.896 129.541 368.147 129.792C368.397 130.042 368.737 130.183 369.092 130.184H470.946C471.301 130.183 471.641 130.042 471.891 129.792C472.142 129.541 472.283 129.202 472.283 128.848C472.283 128.493 472.142 128.154 471.891 127.903C471.641 127.653 471.301 127.512 470.946 127.511H369.092Z" fill="#E6E6E6"/>
<path d="M297.03 109.055C303.473 109.055 308.696 103.844 308.696 97.4153C308.696 90.9871 303.473 85.776 297.03 85.776C290.587 85.776 285.364 90.9871 285.364 97.4153C285.364 103.844 290.587 109.055 297.03 109.055Z" fill="#A0616A"/>
<path d="M293.336 88.1039C293.336 88.1039 298.78 89.5588 301.599 90.1408C304.418 90.7228 304.127 89.0738 304.127 89.0738C304.127 89.0738 307.821 89.5588 307.626 89.1708C307.432 88.7828 309.182 86.746 307.14 84.4181C305.099 82.0903 305.682 80.3444 305.682 80.3444H303.932L303.446 79.6654H300.724C300.724 79.6654 297.715 77.0324 292.368 77.8084C287.021 78.5844 280.698 80.6353 280.115 83.8362C280.035 84.2703 279.931 84.7526 279.81 85.2621C278.348 91.4206 281.455 97.1829 284.677 102.635C285.469 103.974 289.299 106.896 289.201 104.891C289.103 102.887 285.753 98.3853 288.086 98.0943C290.419 97.8033 294.405 91.8867 293.336 88.1039Z" fill="#2F2E41"/>
<path d="M290.412 135.043C288.16 134.863 285.927 134.497 283.736 133.949L283.858 131.627L284.88 113.172L284.889 113.03H305.439L308.664 130.023L309.099 132.316C308.247 132.646 307.387 132.958 306.508 133.231C306.498 133.231 306.498 133.241 306.489 133.241C305.269 133.618 304.03 133.949 302.781 134.222C301.121 134.579 299.441 134.838 297.75 134.996C296.443 135.125 295.13 135.188 293.817 135.185C292.682 135.185 291.537 135.137 290.412 135.043Z" fill="#2DBA4E"/>
<path d="M277.201 131.76C276.35 131.392 275.527 130.995 274.714 130.58L274.364 130.401C274.127 130.278 273.882 130.146 273.645 130.014C273.323 129.835 273.011 129.656 272.709 129.476C272.416 129.306 272.113 129.127 271.82 128.948C271.801 128.938 271.792 128.929 271.773 128.929C270.751 128.278 269.749 127.608 268.784 126.882C268.624 126.759 268.463 126.636 268.302 126.514L268.132 123.796L268.378 123.645L284.88 113.172L285.107 113.03L285.126 113.021L287.452 113.03V121.673C288.766 123.57 289.655 127.542 290.204 132.741C290.28 133.486 290.346 134.251 290.412 135.043C288.16 134.863 285.927 134.497 283.736 133.949C283.499 133.901 283.272 133.845 283.036 133.779C281.657 133.419 280.3 132.984 278.969 132.477C278.563 132.326 278.165 132.165 277.768 132.005L277.73 131.986C277.56 131.911 277.371 131.835 277.201 131.76Z" fill="#2F2E41"/>
<path d="M273.645 130.014C273.324 129.835 273.011 129.656 272.709 129.476C272.416 129.306 272.113 129.127 271.82 128.948C271.801 128.938 271.792 128.929 271.773 128.929C270.752 128.278 269.749 127.608 268.785 126.882C268.624 126.759 268.463 126.636 268.302 126.514C268.227 126.448 268.151 126.391 268.066 126.325C267.461 125.863 266.874 125.381 266.307 124.872C266.279 124.853 266.26 124.825 266.231 124.806C266.804 124.366 267.447 124.025 268.132 123.796L268.803 123.994L273.589 125.428L273.617 127.363L273.645 130.014Z" fill="#2F2E41"/>
<path d="M313.941 130.042C313.657 130.193 313.373 130.344 313.09 130.486C313.023 130.524 312.967 130.552 312.91 130.58C312.531 130.769 312.163 130.958 311.785 131.137C311.775 131.146 311.756 131.146 311.756 131.156C311.737 131.165 311.709 131.175 311.69 131.184C310.839 131.59 309.978 131.967 309.099 132.316C308.248 132.647 307.387 132.958 306.508 133.231C306.498 133.231 306.498 133.241 306.489 133.241C305.269 133.618 304.03 133.949 302.781 134.222C302.767 133.447 302.869 132.674 303.084 131.929L303.093 131.797L303.907 118.663L302.819 113.03L305.94 112.568L323.104 121.786C323.104 121.786 321.213 123.673 313.449 127.693C312.762 128.048 313.77 129.231 313.941 130.042Z" fill="#2F2E41"/>
<path d="M297.543 132.731C296.313 132.845 295.065 132.901 293.817 132.901C292.606 132.901 291.405 132.854 290.204 132.741C290.28 133.486 290.346 134.251 290.412 135.043C291.537 135.137 292.682 135.185 293.817 135.185C295.13 135.188 296.443 135.125 297.75 134.996C299.441 134.838 301.121 134.58 302.781 134.222C302.767 133.447 302.869 132.674 303.084 131.929L303.093 131.797C301.268 132.241 299.413 132.553 297.543 132.731ZM333.279 79.7803C331.281 74.053 328.055 68.8295 323.825 64.474C319.595 60.1186 314.465 56.7361 308.79 54.5624C303.116 52.3886 297.035 51.476 290.97 51.8881C284.906 52.3002 279.005 54.0272 273.678 56.9485C268.352 59.8698 263.728 63.9153 260.13 68.8027C256.531 73.6901 254.044 79.3019 252.843 85.2467C251.641 91.1915 251.754 97.3263 253.173 103.223C254.592 109.12 257.283 114.637 261.058 119.39C261.436 119.862 261.824 120.333 262.221 120.786C262.259 120.824 262.278 120.852 262.306 120.881C263.283 122.004 264.321 123.072 265.418 124.079C265.683 124.325 265.957 124.57 266.231 124.806C266.26 124.825 266.278 124.853 266.307 124.872C266.874 125.381 267.461 125.863 268.065 126.325C268.151 126.391 268.227 126.448 268.302 126.514C268.463 126.636 268.624 126.759 268.784 126.882C269.749 127.608 270.751 128.278 271.773 128.929C271.792 128.929 271.801 128.938 271.82 128.948C272.113 129.127 272.416 129.306 272.709 129.476C273.012 129.656 273.324 129.835 273.645 130.014C273.882 130.146 274.127 130.278 274.364 130.401L274.714 130.58C275.527 130.995 276.35 131.392 277.201 131.76C277.371 131.835 277.56 131.911 277.73 131.986L277.768 132.005C278.165 132.165 278.563 132.326 278.969 132.477C280.3 132.984 281.657 133.419 283.036 133.779C283.272 133.845 283.499 133.901 283.736 133.949C285.927 134.497 288.16 134.863 290.412 135.043C291.537 135.137 292.682 135.185 293.817 135.185C295.13 135.188 296.443 135.125 297.75 134.996C299.441 134.838 301.121 134.58 302.781 134.222C304.03 133.949 305.269 133.618 306.489 133.241C306.498 133.241 306.498 133.232 306.508 133.232C307.387 132.958 308.247 132.647 309.099 132.316C309.978 131.967 310.839 131.59 311.69 131.184C311.709 131.175 311.737 131.165 311.756 131.156C311.756 131.146 311.775 131.146 311.785 131.137C312.163 130.958 312.531 130.769 312.91 130.58C312.967 130.552 313.023 130.524 313.089 130.486C313.373 130.344 313.656 130.193 313.94 130.042C313.959 130.033 313.969 130.023 313.988 130.014C314.735 129.599 315.473 129.165 316.201 128.703C316.399 128.58 316.598 128.457 316.796 128.316C317.09 128.136 317.373 127.938 317.647 127.74C318.016 127.485 318.385 127.221 318.745 126.948C318.864 126.871 318.978 126.786 319.085 126.693C319.965 126.032 320.816 125.334 321.629 124.598C327.796 119.115 332.195 111.93 334.269 103.953C336.343 95.975 335.998 87.5628 333.279 79.7803ZM320.92 122.164C319.896 123.125 318.823 124.032 317.704 124.881C317.459 125.07 317.203 125.259 316.948 125.428C316.702 125.617 316.456 125.796 316.201 125.966C315.983 126.117 315.766 126.268 315.539 126.41C315.52 126.429 315.492 126.438 315.473 126.457C315.312 126.57 315.142 126.674 314.981 126.778C314.479 127.089 313.959 127.4 313.449 127.693C313.326 127.759 313.212 127.834 313.09 127.901C313.023 127.938 312.957 127.976 312.881 128.014C312.598 128.174 312.314 128.316 312.03 128.467C311.992 128.495 311.945 128.504 311.907 128.533C311.893 128.535 311.88 128.542 311.87 128.552C311.671 128.655 311.472 128.75 311.274 128.844C311.104 128.929 310.943 129.014 310.772 129.089C310.082 129.42 309.373 129.731 308.664 130.023C307.916 130.325 307.16 130.599 306.394 130.854C306.205 130.92 306.006 130.995 305.808 131.052C304.909 131.335 304.011 131.59 303.093 131.797C301.268 132.241 299.413 132.553 297.543 132.731C296.313 132.845 295.065 132.901 293.817 132.901C292.606 132.901 291.405 132.854 290.204 132.741C288.062 132.545 285.939 132.173 283.859 131.627C283.783 131.609 283.698 131.59 283.622 131.571C281.915 131.127 280.243 130.559 278.619 129.873C278.534 129.835 278.44 129.806 278.364 129.769C278.269 129.731 278.184 129.703 278.109 129.665C278.014 129.627 277.929 129.589 277.844 129.552C277.135 129.24 276.445 128.901 275.754 128.552L275.432 128.382C274.818 128.061 274.212 127.731 273.617 127.363C273.409 127.249 273.191 127.117 272.983 126.985C272.747 126.844 272.51 126.693 272.283 126.542C272.227 126.504 272.17 126.466 272.113 126.429C271.584 126.07 271.045 125.712 270.534 125.325C270.175 125.06 269.825 124.806 269.475 124.532C269.248 124.362 269.021 124.183 268.803 123.994C268.662 123.891 268.52 123.768 268.378 123.645C268.189 123.485 267.999 123.324 267.811 123.155C267.517 122.919 267.243 122.654 266.978 122.409C265.913 121.43 264.906 120.39 263.961 119.295C263.64 118.937 263.337 118.578 263.044 118.201C262.976 118.127 262.913 118.048 262.855 117.965C258.094 111.969 255.185 104.719 254.483 97.1014C253.782 89.4835 255.317 81.8265 258.902 75.0645C262.488 68.3025 267.968 62.7278 274.675 59.0205C281.382 55.3132 289.025 53.6336 296.673 54.1866C304.32 54.7396 311.641 57.5013 317.742 62.1347C323.843 66.7682 328.46 73.073 331.031 80.2802C333.602 87.4874 334.014 95.2853 332.219 102.723C330.423 110.16 326.497 116.915 320.92 122.164Z" fill="#3F3D56"/>
<path d="M101.988 309.25L109.639 309.25L113.278 279.808L101.987 279.808L101.988 309.25Z" fill="#A0616A"/>
<path d="M100.037 306.758L115.104 306.757H115.104C117.651 306.757 120.093 307.767 121.894 309.563C123.694 311.36 124.706 313.796 124.706 316.337V316.648L100.038 316.649L100.037 306.758Z" fill="#2F2E41"/>
<path d="M130.694 309.25L138.344 309.25L141.984 279.808L130.693 279.808L130.694 309.25Z" fill="#A0616A"/>
<path d="M128.742 306.758L143.809 306.757H143.81C146.356 306.757 148.798 307.767 150.599 309.563C152.399 311.36 153.411 313.796 153.411 316.337V316.648L128.743 316.649L128.742 306.758Z" fill="#2F2E41"/>
<path d="M78.775 192.91C79.4012 192.241 79.8727 191.443 80.1564 190.573C80.4401 189.703 80.529 188.781 80.417 187.872C80.3049 186.964 79.9946 186.091 79.5079 185.315C79.0211 184.539 78.3698 183.879 77.5998 183.382L82.9154 161.774L71.9997 165.655L68.6254 185.579C67.8734 186.925 67.6425 188.499 67.9763 190.004C68.3101 191.509 69.1854 192.839 70.4365 193.742C71.6876 194.646 73.2274 195.061 74.7643 194.907C76.3011 194.754 77.7282 194.043 78.775 192.91Z" fill="#9E616A"/>
<path d="M159.987 191.042C159.36 190.373 158.889 189.576 158.605 188.705C158.321 187.835 158.233 186.913 158.345 186.004C158.457 185.096 158.767 184.223 159.254 183.447C159.74 182.671 160.392 182.011 161.162 181.514L155.846 159.906L166.762 163.787L170.136 183.711C170.888 185.057 171.119 186.632 170.785 188.136C170.452 189.641 169.576 190.971 168.325 191.875C167.074 192.778 165.534 193.193 163.997 193.039C162.46 192.886 161.033 192.175 159.987 191.042Z" fill="#9E616A"/>
<path d="M88.8408 177.764L99.4449 301.704L114.961 300.293L121.17 204.504L126.698 242.432L127.805 302.68L141.846 301.746L149.642 236.932L147.73 174.162L94.4271 168.776L88.8408 177.764Z" fill="#2F2E41"/>
<path d="M118.011 64.9809C126.898 64.9809 134.102 57.7931 134.102 48.9264C134.102 40.0597 126.898 32.8719 118.011 32.8719C109.124 32.8719 101.92 40.0597 101.92 48.9264C101.92 57.7931 109.124 64.9809 118.011 64.9809Z" fill="#A0616A"/>
<path d="M112.916 36.0828C112.916 36.0828 120.425 38.0896 124.313 38.8923C128.202 39.695 127.8 37.4206 127.8 37.4206C127.8 37.4206 132.895 38.0896 132.627 37.5544C132.359 37.0193 134.772 34.2097 131.957 30.9988C129.141 27.7879 129.945 25.3797 129.945 25.3797H127.532L126.861 24.4432H123.106C123.106 24.4432 118.955 20.8115 111.58 21.8818C104.205 22.9521 95.4836 25.7811 94.679 30.1961C94.5699 30.7949 94.4262 31.4602 94.2594 32.1629C92.2427 40.6576 96.5277 48.6057 100.972 56.1254C102.064 57.9735 107.347 62.0034 107.212 59.2385C107.077 56.4736 102.456 50.2642 105.675 49.8629C108.893 49.4615 114.391 41.3005 112.916 36.0828Z" fill="#2F2E41"/>
<path d="M101.267 70.4651H129.605L149.642 176.045C149.642 176.045 132.173 177.535 122.189 181.271C112.204 185.006 95.6063 172.737 95.6063 172.737L101.267 70.4651Z" fill="#2DBA4E"/>
<path d="M104.805 82.388V70.4651L101.596 70.4456L78.1532 85.3167L83.24 166.793C83.24 166.793 89.2606 193.975 98.3924 193.693C107.524 193.411 114.565 96.5095 104.805 82.388Z" fill="#2F2E41"/>
<path d="M85.6834 87.5674L78.1533 85.3167C78.1533 85.3167 72.5788 86.9448 72.5788 92.5483C72.5788 98.1518 67.7758 177.764 67.7758 177.764L83.0337 179.109L86.3074 138.622L85.6834 87.5674Z" fill="#2F2E41"/>
<path d="M127.493 78.2282L125.992 70.4651L130.301 69.8229L145.902 76.0491C145.902 76.0491 159.943 178.469 153.702 181.582C147.462 184.695 143.249 182.283 143.249 182.283C143.249 182.283 122.724 106.744 126.356 96.533L127.493 78.2282Z" fill="#2F2E41"/>
<path d="M134.981 77.6056L137.644 76.4493C137.644 76.4493 145.459 72.5856 149.892 80.3878C154.326 88.19 169.927 175.356 169.927 175.356L157.091 177.764L147.494 146.394L134.981 77.6056Z" fill="#2F2E41"/>
<path d="M238.378 317H0.624027C0.458525 317 0.299801 316.934 0.182773 316.818C0.065745 316.701 0 316.543 0 316.377C0 316.212 0.065745 316.054 0.182773 315.937C0.299801 315.82 0.458525 315.755 0.624027 315.755H238.378C238.544 315.755 238.703 315.82 238.82 315.937C238.937 316.054 239.002 316.212 239.002 316.377C239.002 316.543 238.937 316.701 238.82 316.818C238.703 316.934 238.544 317 238.378 317Z" fill="#CACACA"/>
</g>
<defs>
<clipPath id="clip0_30_859">
<rect width="564" height="317" fill="white"/>
</clipPath>
</defs>
</svg>
